<svg width="69" height="64" viewBox="0 0 69 64" fill="none" xmlns="http://www.w3.org/2000/svg">
<g clip-path="url(#clip0_273_634)">
<g clip-path="url(#clip1_273_634)">
<path fill-rule="evenodd" clip-rule="evenodd" d="M19.5635 34.3568L1.34906 52.7742C0.880066 53.245 0.880066 54.0115 1.34906 54.4823L9.48559 62.6945C9.96549 63.1763 10.7399 63.1763 11.2089 62.6945L38.7815 34.3349C40.0794 32.9991 40.0794 30.8639 38.7815 29.5281L11.2089 1.16847C10.729 0.686683 9.95459 0.686683 9.48559 1.16847L1.34906 9.39165C0.880066 9.86249 0.880066 10.629 1.34906 11.0998L19.5635 29.5062C20.8942 30.853 20.8942 33.021 19.5635 34.3568ZM48.794 34.2145L30.4595 52.7194C29.9796 53.2121 29.9796 53.9895 30.4595 54.4823C30.9394 54.975 38.5306 62.6507 38.5306 62.6507C39.0214 63.1544 39.8176 63.1544 40.3084 62.6507L67.9901 34.1707C69.2117 32.9224 69.2117 30.9186 67.9901 29.6594L40.3084 1.19035C39.8176 0.697617 39.0214 0.697617 38.5306 1.19035L30.4595 9.35879C29.9796 9.85152 29.9796 10.6289 30.4595 11.1217L48.794 29.6594C50.0374 30.9186 50.0374 32.9553 48.794 34.2145Z" fill="url(#paint0_linear_273_634)"/>
</g>
</g>
<defs>
<linearGradient id="paint0_linear_273_634" x1="1.00013" y1="32.5224" x2="69.0001" y2="32.5224" gradientUnits="userSpaceOnUse">
<stop stop-color="#0619FF"/>
<stop offset="0.85" stop-color="#19B3E3"/>
</linearGradient>
<clipPath id="clip0_273_634">
<rect width="69" height="64" fill="white"/>
</clipPath>
<clipPath id="clip1_273_634">
<rect width="69" height="64" fill="white"/>
</clipPath>
</defs>
</svg>
